<?xml version="1.0" standalone="no"?>
<!DOCTYPE svg PUBLIC "-//W3C//DTD SVG 20010904//EN"
 "http://www.w3.org/TR/2001/REC-SVG-20010904/DTD/svg10.dtd">
<svg version="1.0" xmlns="http://www.w3.org/2000/svg"
 width="1727.000000pt" height="1689.000000pt" viewBox="0 0 1727.000000 1689.000000"
 preserveAspectRatio="xMidYMid meet">

<g transform="translate(0.000000,1689.000000) scale(0.100000,-0.100000)"
fill="#000000" stroke="none">
<path d="M5210 16444 c-19 -7 -43 -13 -53 -13 -23 -1 -113 -50 -144 -78 -13
-13 -28 -23 -34 -23 -5 0 -9 -6 -9 -12 0 -7 -14 -22 -30 -33 -16 -11 -30 -26
-30 -32 0 -7 -4 -13 -9 -13 -12 0 -61 -47 -61 -60 0 -5 -4 -10 -8 -10 -9 0
-122 -108 -122 -116 0 -8 -52 -54 -61 -54 -5 0 -9 -6 -9 -12 0 -7 -14 -22 -30
-33 -16 -11 -30 -23 -30 -27 0 -9 -177 -182 -190 -186 -6 -2 -10 -10 -10 -18
0 -8 -7 -14 -15 -14 -8 0 -15 -6 -15 -12 0 -7 -14 -22 -30 -33 -16 -11 -30
-26 -30 -32 0 -7 -4 -13 -9 -13 -12 0 -61 -47 -61 -60 0 -5 -7 -10 -15 -10 -8
0 -15 -7 -15 -15 0 -8 -4 -15 -9 -15 -12 0 -91 -78 -91 -90 0 -5 -4 -10 -9
-10 -12 0 -91 -78 -91 -90 0 -6 -4 -10 -9 -10 -12 0 -251 -239 -251 -251 0 -5
-3 -9 -8 -9 -11 0 -122 -108 -122 -120 0 -5 -3 -10 -8 -10 -9 0 -122 -109
-122 -118 0 -4 -16 -18 -34 -32 -19 -14 -42 -37 -52 -51 -9 -14 -30 -34 -46
-45 -15 -10 -28 -22 -28 -26 0 -11 -49 -58 -60 -58 -6 0 -10 -7 -10 -15 0 -8
-4 -15 -9 -15 -12 0 -741 -729 -741 -741 0 -5 -4 -9 -9 -9 -12 0 -121 -110
-121 -121 0 -5 -5 -9 -10 -9 -11 0 -90 -81 -90 -92 0 -5 -4 -8 -10 -8 -12 0
-90 -79 -90 -91 0 -5 -7 -9 -15 -9 -8 0 -15 -7 -15 -15 0 -8 -4 -15 -10 -15
-11 0 -50 -36 -50 -47 0 -5 -16 -19 -35 -33 -19 -14 -35 -31 -35 -37 0 -7 -3
-13 -8 -13 -11 0 -122 -108 -122 -120 0 -5 -4 -10 -9 -10 -12 0 -581 -569
-581 -581 0 -5 -7 -9 -15 -9 -8 0 -15 -7 -15 -15 0 -8 -5 -15 -10 -15 -11 0
-90 -81 -90 -92 0 -5 -5 -8 -10 -8 -13 0 -50 -37 -50 -49 0 -5 -9 -13 -20 -16
-11 -3 -20 -13 -20 -21 0 -8 -4 -14 -8 -14 -11 0 -152 -140 -152 -151 0 -5 -3
-9 -8 -9 -11 0 -122 -108 -122 -120 0 -5 -4 -10 -9 -10 -12 0 -191 -179 -191
-191 0 -5 -7 -9 -15 -9 -8 0 -15 -6 -15 -14 0 -7 -7 -19 -15 -26 -15 -13 -24
-29 -64 -124 l-21 -49 0 -3233 c0 -2146 3 -3235 10 -3239 6 -3 15 -26 21 -51
6 -24 15 -44 20 -44 5 0 9 -4 9 -10 0 -5 10 -24 23 -42 28 -41 2705 -2718
2718 -2718 5 0 9 -4 9 -9 0 -5 400 -410 890 -898 698 -699 900 -895 942 -917
29 -15 60 -31 68 -35 66 -37 16 -36 3290 -36 3411 0 3206 -3 3320 49 25 11 51
26 58 33 7 7 19 13 26 13 6 0 23 13 36 30 14 16 31 29 38 30 6 0 12 5 12 10 0
13 49 60 61 60 5 0 9 4 9 10 0 12 688 700 700 700 6 0 10 5 10 11 0 14 47 59
61 59 5 0 9 4 9 9 0 11 80 91 91 91 5 0 9 7 9 15 0 8 7 15 15 15 8 0 15 6 15
13 0 6 16 23 35 37 19 14 35 28 35 32 0 12 859 868 870 868 6 0 10 7 10 15 0
8 7 15 15 15 8 0 15 7 15 15 0 8 4 15 9 15 5 0 35 25 65 56 31 30 56 60 56 65
0 5 3 9 8 9 11 0 122 108 122 120 0 5 4 10 9 10 12 0 91 78 91 90 0 6 3 10 8
10 11 0 92 79 92 90 0 5 7 10 15 10 8 0 15 7 15 15 0 8 3 15 8 15 8 0 122 107
122 114 0 10 110 116 120 116 5 0 10 7 10 15 0 8 4 15 8 15 5 0 26 18 48 41
21 22 51 52 65 67 15 15 45 44 68 64 22 20 41 38 41 41 0 8 112 117 121 117 5
0 9 7 9 15 0 8 3 15 8 15 11 0 122 108 122 120 0 5 3 10 8 10 11 0 122 108
122 120 0 5 4 10 9 10 5 0 50 41 100 91 50 50 91 95 91 100 0 5 7 9 15 9 8 0
15 7 15 15 0 8 4 15 9 15 10 0 120 107 122 118 0 4 29 32 64 62 35 30 64 61
64 68 1 6 4 12 9 12 8 0 92 77 92 84 0 9 77 86 86 86 5 0 18 12 28 28 10 15
40 45 67 67 26 22 48 46 48 53 1 6 8 12 16 12 8 0 15 7 15 15 0 8 4 15 9 15
11 0 161 150 161 162 0 4 7 8 15 8 8 0 15 4 15 8 0 5 13 21 29 38 15 16 31 39
35 52 4 12 12 22 17 22 5 0 9 6 9 13 0 7 10 30 23 52 l22 40 0 3246 0 3247
-40 78 c-22 43 -52 91 -67 106 -16 15 -28 32 -28 38 0 5 -4 10 -9 10 -12 0
-1101 1090 -1101 1101 0 5 -4 9 -9 9 -12 0 -1101 1089 -1101 1101 0 5 -4 9 -9
9 -12 0 -1101 1089 -1101 1101 0 5 -4 9 -9 9 -11 0 -191 179 -191 191 0 5 -4
9 -9 9 -5 0 -212 202 -459 449 -480 480 -497 494 -631 531 -70 20 -117 20
-3248 19 -2611 -1 -3184 -4 -3213 -15z m6346 -404 c15 0 173 -151 503 -480
264 -265 481 -485 481 -490 0 -6 4 -10 9 -10 12 0 1591 -1579 1591 -1591 0 -5
4 -9 10 -9 5 0 426 -417 935 -926 l925 -925 0 -3144 0 -3144 -270 -270 c-149
-149 -275 -271 -280 -271 -6 0 -10 -4 -10 -10 0 -12 -1579 -1590 -1591 -1590
-5 0 -9 -4 -9 -10 0 -13 -308 -320 -320 -320 -6 0 -10 -4 -10 -10 0 -5 -83
-93 -185 -195 -102 -102 -190 -185 -195 -185 -6 0 -10 -4 -10 -9 0 -13 -988
-1001 -1000 -1001 -6 0 -10 -4 -10 -9 0 -13 -177 -191 -190 -191 -6 0 -10 -4
-10 -9 0 -5 -77 -86 -171 -180 l-172 -171 -3136 0 c-1725 0 -3146 3 -3158 6
-13 4 -23 11 -23 18 0 6 -14 20 -30 31 -16 11 -30 24 -30 28 0 10 -50 57 -61
57 -5 0 -9 7 -9 15 0 8 -4 15 -9 15 -4 0 -23 16 -42 36 -110 115 -714 714
-721 714 -4 0 -8 6 -9 13 0 6 -29 37 -64 67 -35 30 -64 60 -64 65 -1 6 -17 21
-36 35 -19 14 -35 30 -35 35 0 6 -14 19 -30 30 -16 11 -30 23 -30 27 0 4 -25
31 -56 60 -31 29 -75 73 -97 97 -50 52 -125 127 -158 158 -13 12 -136 134
-273 272 -138 138 -253 251 -258 251 -4 0 -8 4 -8 9 0 11 -111 121 -122 121
-4 0 -8 6 -8 13 0 6 -16 23 -35 37 -19 14 -35 30 -35 35 0 6 -14 19 -30 30
-16 11 -30 24 -30 28 0 10 -50 57 -61 57 -5 0 -9 7 -9 15 0 8 -4 15 -9 15 -5
0 -33 25 -62 56 -74 76 -480 482 -573 573 -42 40 -76 76 -76 80 0 3 -14 15
-30 26 -16 11 -30 25 -31 30 0 6 -29 35 -64 65 -35 30 -64 60 -64 65 -1 6 -16
21 -34 34 -17 13 -48 43 -67 66 -19 23 -50 53 -67 66 -18 13 -33 30 -33 37 0
6 -4 12 -8 12 -8 0 -122 108 -122 116 0 3 -12 16 -28 30 -73 68 -132 127 -132
135 0 5 -7 9 -15 9 -8 0 -15 4 -15 8 0 5 -77 85 -170 178 -94 93 -213 211
-265 263 -52 52 -95 97 -95 100 0 3 -14 15 -30 26 -16 11 -30 23 -30 28 0 4
-9 16 -20 27 -20 20 -20 33 -20 3156 l0 3137 88 91 c48 50 92 94 97 98 12 9
481 476 546 545 26 26 85 86 133 132 47 46 86 86 86 90 0 3 16 17 35 30 19 13
35 27 35 31 0 4 36 43 81 86 44 44 293 292 552 552 260 261 483 484 495 495
13 12 533 531 1156 1154 923 922 1138 1132 1162 1135 16 1 1422 2 3124 1 1702
-2 3104 -3 3116 -3z"/>
<path d="M6215 15630 c-27 -5 -209 -9 -403 -9 l-353 -1 -575 -575 c-316 -316
-579 -575 -584 -575 -6 0 -10 -5 -10 -12 0 -13 -48 -58 -62 -58 -4 0 -8 -6 -8
-12 0 -7 -16 -24 -35 -37 -19 -13 -35 -27 -35 -32 0 -11 -560 -569 -572 -569
-4 0 -8 -4 -8 -9 0 -12 -308 -321 -320 -321 -6 0 -10 -6 -10 -12 0 -7 -14 -22
-30 -33 -16 -11 -30 -24 -30 -30 0 -13 -45 -55 -59 -55 -6 0 -11 -6 -11 -12 0
-7 -14 -22 -30 -33 -16 -11 -30 -23 -30 -27 0 -10 -830 -838 -841 -838 -5 0
-9 -7 -9 -15 0 -8 -16 -25 -35 -37 -19 -13 -35 -27 -35 -32 0 -13 -106 -116
-119 -116 -6 0 -11 -7 -11 -15 0 -8 -3 -15 -8 -15 -10 0 -52 -41 -76 -74 -10
-14 -25 -26 -32 -26 -8 0 -14 -4 -14 -9 0 -10 -239 -251 -249 -251 -3 0 -15
-14 -26 -30 -11 -17 -28 -33 -37 -36 -10 -3 -18 -9 -18 -14 0 -11 -100 -110
-111 -110 -5 0 -9 -4 -9 -9 0 -12 -47 -61 -60 -61 -5 0 -10 -5 -10 -11 0 -6
-16 -26 -35 -44 -19 -19 -37 -44 -40 -57 -3 -13 -4 -1351 -3 -2974 l3 -2950
103 -102 c56 -55 102 -105 102 -111 0 -6 7 -11 15 -11 8 0 15 -7 15 -15 0 -8
4 -15 9 -15 13 0 611 -597 611 -610 0 -5 4 -10 10 -10 12 0 580 -567 580 -580
0 -5 4 -10 10 -10 12 0 120 -107 120 -120 0 -5 5 -10 10 -10 13 0 900 -887
900 -900 0 -5 4 -10 10 -10 12 0 190 -178 190 -191 0 -5 4 -9 10 -9 13 0 1100
-1087 1100 -1100 0 -5 4 -10 10 -10 13 0 180 -166 180 -179 0 -6 5 -11 10 -11
6 0 46 -36 90 -79 43 -43 89 -86 101 -95 21 -14 288 -16 2976 -16 l2953 0 112
110 c62 61 116 110 120 110 4 0 8 7 8 15 0 8 7 15 15 15 8 0 15 4 15 9 0 13
76 91 89 91 6 0 11 7 11 15 0 8 7 15 15 15 8 0 15 5 15 10 0 13 49 60 61 60 5
0 9 7 9 15 0 8 7 15 15 15 8 0 15 7 15 15 0 8 7 15 15 15 8 0 15 5 15 11 0 12
108 119 121 119 5 0 9 4 9 10 0 13 207 220 220 220 6 0 10 7 10 15 0 8 7 15
15 15 8 0 15 5 15 12 0 13 76 88 90 88 6 0 10 4 10 10 0 10 236 250 248 251 4
0 25 22 47 49 22 27 46 49 53 49 6 1 12 8 12 16 0 8 7 15 15 15 8 0 15 3 15 8
0 12 78 92 90 92 5 0 10 7 10 15 0 8 7 15 15 15 8 0 15 4 15 9 0 12 78 91 90
91 6 0 10 6 10 13 0 6 16 23 35 37 19 14 35 28 35 33 0 9 38 47 48 47 4 0 16
14 27 30 11 17 28 33 38 36 9 3 17 10 17 15 0 12 37 49 50 49 6 0 10 4 10 9 0
14 45 61 59 61 6 0 11 4 11 9 0 12 138 151 150 151 6 0 10 4 10 9 0 11 179
191 191 191 5 0 9 4 9 10 0 11 67 80 78 80 4 0 18 16 32 35 14 19 31 35 38 35
6 0 12 4 12 10 0 12 107 120 120 120 5 0 10 7 10 15 0 8 7 15 15 15 8 0 15 6
15 14 0 8 9 18 20 21 11 3 20 13 20 21 0 8 7 14 15 14 8 0 15 7 15 15 0 8 7
15 15 15 8 0 15 5 15 12 0 13 48 58 62 58 4 0 8 7 8 15 0 8 7 15 15 15 8 0 15
7 15 15 0 8 4 15 9 15 8 0 91 78 91 86 0 8 41 44 50 44 6 0 10 4 10 10 0 13
77 90 90 90 5 0 10 4 10 10 0 13 368 380 381 380 5 0 9 4 9 9 0 5 19 27 41 50
23 22 45 41 50 41 5 0 9 7 9 15 0 8 7 15 15 15 8 0 15 4 15 8 0 12 77 92 89
92 6 0 11 7 11 15 0 8 4 15 10 15 9 0 60 47 60 55 0 9 40 45 50 45 6 0 10 7
10 15 0 8 4 15 10 15 9 0 60 47 60 55 0 9 40 45 50 45 6 0 10 3 10 8 0 11 108
122 120 122 5 0 10 4 10 9 0 5 20 31 45 57 l45 47 0 2948 c0 2342 -3 2954 -12
2970 -18 28 -248 259 -259 259 -5 0 -9 6 -9 14 0 7 -16 24 -35 37 -19 13 -35
27 -35 31 0 11 -109 118 -120 118 -5 0 -10 6 -10 13 0 6 -16 23 -35 37 -19 14
-35 28 -35 31 0 5 -100 106 -220 223 -22 22 -40 43 -40 48 0 4 -4 8 -9 8 -6 0
-34 25 -63 56 -75 80 -269 274 -274 274 -5 0 -44 39 -44 44 0 9 -242 246 -251
246 -5 0 -9 4 -9 9 0 11 -441 451 -452 451 -4 0 -8 6 -8 13 0 6 -14 21 -30 32
-16 11 -30 23 -30 26 0 8 -80 89 -88 89 -4 0 -18 16 -32 35 -14 19 -31 35 -37
35 -7 0 -13 4 -13 9 0 11 -200 211 -211 211 -5 0 -9 4 -9 10 0 11 -110 120
-122 120 -4 0 -8 6 -8 14 0 7 -16 24 -35 37 -19 13 -35 27 -35 30 0 7 -77 89
-85 89 -5 0 -45 38 -45 43 0 9 -112 117 -121 117 -5 0 -9 4 -9 9 0 8 -209 221
-216 221 -6 0 -184 186 -184 192 0 5 -7 8 -15 8 -8 0 -15 4 -15 8 0 7 -147
157 -216 220 -8 7 -14 18 -14 23 0 5 -7 9 -15 9 -8 0 -15 3 -15 8 0 8 -27 37
-104 110 -31 29 -56 55 -56 57 0 8 -113 115 -122 115 -4 0 -8 7 -8 15 0 8 -3
15 -8 15 -8 0 -122 107 -122 114 0 4 -71 74 -167 165 -18 17 -33 36 -33 41 0
6 -5 10 -11 10 -7 0 -18 8 -25 18 -11 16 -55 18 -556 25 -757 10 -4592 16
-4653 7z m527 -784 c135 -29 245 -103 292 -198 58 -116 12 -228 -92 -228 -42
0 -76 31 -122 110 -22 38 -55 80 -73 94 -94 72 -295 53 -357 -34 -27 -38 -30
-98 -6 -135 25 -39 103 -72 266 -115 174 -46 281 -88 343 -135 166 -127 169
-398 7 -549 -96 -90 -223 -131 -400 -129 -183 2 -303 44 -394 138 -79 81 -124
199 -105 270 21 75 115 110 173 64 15 -12 45 -58 67 -103 22 -44 50 -92 62
-104 84 -91 295 -96 393 -9 100 87 80 209 -44 271 -18 9 -99 34 -181 56 -170
44 -250 75 -316 120 -182 125 -181 401 2 534 114 83 317 117 485 82z m2472
-11 c167 -44 293 -146 364 -295 58 -121 76 -219 69 -389 -3 -102 -10 -154 -27
-206 -67 -212 -204 -346 -411 -401 -88 -23 -281 -23 -369 0 -234 63 -380 222
-431 471 -37 177 -14 389 57 529 83 164 230 272 419 306 70 13 259 4 329 -15z
m-983 -5 c48 -14 70 -40 76 -93 5 -39 1 -48 -25 -78 l-30 -34 -179 -5 -178 -5
-5 -507 c-5 -495 -5 -507 -26 -535 -25 -33 -86 -56 -126 -48 -42 10 -86 51
-98 93 -6 23 -10 221 -10 520 l0 482 -164 0 c-91 0 -176 4 -190 10 -61 23 -80
120 -34 167 14 14 41 29 59 33 51 12 887 12 930 0z m2271 0 c157 -18 260 -85
314 -203 23 -51 29 -80 32 -158 9 -219 -77 -340 -288 -401 -19 -6 -123 -13
-230 -17 l-195 -6 -5 -220 c-5 -239 -9 -255 -67 -286 -35 -19 -103 -16 -135 5
-57 37 -58 46 -58 637 0 574 0 580 48 623 12 10 36 22 54 26 49 12 429 11 530
0z m-1168 -3416 c14 -5 16 -37 16 -250 0 -134 -1 -245 -2 -246 -2 -1 -129 -4
-283 -7 l-280 -6 -5 -1471 c-4 -1227 -7 -1474 -19 -1487 -12 -15 -43 -17 -257
-17 -230 0 -244 1 -254 19 -7 13 -10 491 -10 1475 0 800 -3 1461 -6 1470 -5
14 -38 16 -259 16 -139 0 -260 3 -269 6 -14 5 -16 37 -16 248 0 134 3 246 7
249 8 9 1616 9 1637 1z m2150 0 c14 -5 16 -62 16 -534 0 -578 -1 -570 56 -507
33 37 128 117 139 117 3 0 13 7 21 15 9 8 24 15 33 15 10 0 24 7 31 15 7 8 28
17 49 21 20 4 42 11 49 17 7 5 44 12 82 15 85 6 174 -21 254 -75 46 -32 96
-91 96 -113 0 -4 7 -10 15 -14 8 -3 15 -14 15 -23 0 -10 7 -28 15 -40 20 -28
34 -90 70 -314 12 -79 15 -209 14 -790 0 -382 -4 -719 -9 -749 -5 -30 -14 -95
-20 -145 -6 -49 -16 -94 -21 -99 -5 -6 -9 -18 -9 -29 0 -27 -46 -120 -75 -151
-14 -15 -25 -31 -25 -37 0 -5 -4 -9 -8 -9 -5 0 -24 -14 -42 -30 -19 -17 -46
-34 -60 -37 -14 -3 -35 -13 -48 -21 -34 -22 -226 -21 -271 1 -19 9 -42 17 -51
17 -10 0 -23 7 -30 15 -6 8 -21 17 -33 21 -12 4 -26 12 -33 18 -6 6 -22 18
-34 26 -39 25 -84 64 -110 92 -42 47 -50 38 -50 -56 0 -64 -4 -88 -16 -100
-13 -14 -49 -16 -234 -16 -120 0 -225 3 -234 6 -15 6 -16 168 -16 1738 0 953
3 1736 7 1739 8 9 446 9 467 1z m2156 -854 c30 -6 66 -18 80 -25 14 -7 46 -22
73 -34 26 -13 47 -27 47 -32 0 -5 7 -9 15 -9 8 0 24 -9 35 -20 11 -11 23 -20
28 -20 4 -1 16 -12 27 -26 11 -13 35 -41 53 -62 18 -20 42 -57 54 -82 12 -25
27 -52 33 -60 18 -25 56 -162 75 -275 5 -27 9 -208 9 -401 1 -312 -1 -353 -15
-358 -9 -3 -218 -6 -465 -6 l-449 0 -1 -22 c0 -13 0 -144 1 -292 1 -193 5
-281 15 -310 7 -23 16 -53 19 -68 4 -16 11 -28 16 -28 6 0 10 -7 10 -15 0 -8
5 -15 10 -15 6 0 18 -8 28 -18 26 -26 126 -48 155 -34 12 6 33 14 46 17 29 9
61 35 61 51 0 7 6 14 13 17 20 8 36 95 42 235 3 70 8 142 11 160 l5 32 239 0
c237 0 239 0 251 -22 15 -28 6 -383 -10 -402 -6 -7 -14 -34 -17 -60 -4 -25
-10 -46 -15 -46 -4 0 -11 -15 -15 -32 -3 -18 -15 -44 -25 -57 -11 -13 -19 -30
-19 -37 0 -8 -4 -14 -10 -14 -5 0 -10 -6 -10 -14 0 -19 -130 -147 -173 -171
-20 -11 -37 -23 -37 -27 0 -5 -5 -8 -11 -8 -7 0 -30 -8 -53 -19 -97 -44 -150
-54 -299 -54 -146 -1 -201 8 -292 48 -16 8 -40 16 -52 20 -13 3 -23 10 -23 15
0 4 -12 11 -26 14 -14 4 -38 20 -54 36 -16 17 -32 30 -35 30 -11 0 -85 79 -85
90 0 5 -5 10 -10 10 -6 0 -15 11 -20 25 -5 14 -14 25 -20 25 -5 0 -10 7 -10
16 0 9 -9 27 -20 41 -11 14 -20 33 -20 42 0 9 -7 25 -15 35 -8 11 -15 34 -15
51 0 17 -8 42 -17 55 -17 23 -18 77 -18 775 0 691 1 753 18 793 9 23 17 53 17
65 0 13 9 40 20 62 11 22 20 44 20 51 0 6 7 17 15 24 8 7 15 20 15 30 0 10 7
20 15 24 8 3 15 11 15 19 0 7 16 27 35 43 19 16 35 32 35 36 0 11 34 43 53 51
9 3 17 11 17 17 0 5 6 10 14 10 7 0 19 7 26 15 7 8 33 24 59 36 25 12 60 27
76 35 17 8 56 19 89 24 32 5 61 12 65 15 10 10 241 -1 301 -15z m-3890 -39 c7
-13 10 -358 10 -1048 0 -1159 -4 -1099 71 -1123 30 -10 42 -11 51 -2 7 7 20
12 30 12 29 0 92 51 139 113 24 31 46 57 50 57 27 0 29 76 29 1012 0 881 1
963 17 980 15 16 36 18 233 18 152 0 224 -4 243 -12 l27 -13 0 -1282 c0 -1258
0 -1282 -19 -1293 -12 -6 -111 -10 -251 -10 l-230 0 -10 26 c-6 15 -10 65 -9
111 1 60 -2 88 -11 93 -15 9 -40 2 -40 -11 0 -13 -105 -119 -118 -119 -7 0
-12 -5 -12 -11 0 -5 -13 -15 -30 -20 -16 -6 -30 -15 -30 -20 0 -5 -35 -25 -77
-45 -75 -36 -83 -37 -188 -38 -96 -1 -116 2 -157 22 -27 13 -48 28 -48 33 0 5
-5 9 -11 9 -14 0 -59 47 -59 61 0 5 -4 9 -10 9 -13 0 -50 86 -61 145 -5 27
-14 54 -19 59 -16 16 -13 2293 3 2299 6 3 116 6 244 6 220 1 233 0 243 -18z
m-2960 -7151 c156 -52 259 -163 260 -278 0 -78 -48 -132 -118 -132 -42 0 -76
31 -122 110 -47 80 -86 114 -153 131 -99 24 -235 -11 -280 -73 -24 -33 -26
-98 -3 -133 25 -39 103 -72 266 -115 248 -65 346 -115 412 -209 92 -132 72
-333 -46 -459 -92 -99 -222 -145 -406 -145 -126 0 -209 16 -298 59 -133 65
-240 242 -211 349 21 75 115 110 173 64 15 -12 46 -60 70 -108 63 -127 129
-171 257 -171 213 0 336 177 207 297 -35 33 -99 58 -236 93 -223 56 -324 105
-388 188 -46 61 -68 138 -62 221 13 177 135 291 356 331 80 15 250 4 322 -20z
m2350 16 c86 -15 178 -52 243 -96 111 -74 201 -222 233 -379 23 -117 16 -327
-16 -426 -67 -212 -204 -345 -411 -401 -98 -26 -281 -24 -386 5 -218 60 -365
224 -413 461 -63 308 33 610 237 746 137 91 325 124 513 90z m-918 -16 c66
-19 97 -88 67 -153 -21 -46 -43 -52 -229 -57 l-175 -5 -5 -507 c-5 -495 -5
-507 -26 -535 -24 -33 -86 -56 -125 -48 -16 4 -40 16 -55 27 -54 43 -54 47
-54 578 l0 490 -164 0 c-91 0 -176 4 -190 10 -60 22 -80 121 -34 167 14 14 41
29 59 33 52 12 887 12 931 0z m2266 0 c153 -20 254 -86 308 -203 27 -57 29
-71 29 -182 0 -111 -2 -125 -29 -183 -44 -95 -129 -161 -248 -193 -24 -7 -131
-15 -238 -18 l-195 -6 -5 -220 c-5 -239 -9 -255 -67 -286 -35 -19 -103 -16
-135 5 -57 37 -58 46 -58 637 0 574 0 580 48 623 12 10 36 22 54 26 50 12 442
11 536 0z"/>
<path d="M8950 14640 c-188 -40 -289 -197 -290 -450 0 -97 23 -208 56 -272 26
-51 95 -118 149 -146 60 -30 178 -41 252 -23 105 26 198 118 238 236 40 119
37 314 -6 431 -62 165 -229 259 -399 224z"/>
<path d="M10138 14635 c-5 -5 -8 -93 -8 -197 l0 -188 125 0 c140 0 210 12 257
43 50 34 72 80 71 152 -1 95 -35 143 -123 174 -40 14 -311 27 -322 16z"/>
<path d="M11625 10099 c-52 -28 -97 -59 -112 -79 -10 -12 -12 -190 -10 -793
l2 -777 30 -25 c17 -13 39 -27 50 -31 11 -4 22 -10 25 -14 3 -5 35 -16 71 -26
62 -16 69 -16 102 -1 19 9 40 17 46 17 6 0 11 7 11 15 0 8 6 15 13 15 7 0 23
30 36 68 l22 67 -3 730 c-3 694 -4 732 -22 765 -10 19 -32 47 -48 63 -26 24
-36 27 -101 27 -55 0 -82 -5 -112 -21z"/>
<path d="M13343 10104 c-84 -42 -101 -99 -104 -347 l-2 -192 213 -3 213 -2 -6
172 c-7 176 -26 309 -46 316 -6 2 -11 9 -11 15 0 7 -13 21 -28 32 -37 27 -182
33 -229 9z"/>
<path d="M8931 3179 c-185 -31 -291 -196 -290 -449 0 -204 70 -348 204 -418
45 -24 61 -27 155 -27 91 0 112 3 155 25 94 46 166 145 195 269 18 74 15 252
-5 325 -54 202 -214 309 -414 275z"/>
<path d="M10118 3175 c-5 -5 -8 -93 -8 -197 l0 -188 125 0 c140 0 210 12 257
43 50 34 72 80 71 152 -1 95 -35 144 -123 174 -41 14 -311 27 -322 16z"/>
</g>
</svg>
